<svg id="svg" version="1.1" xmlns="http://www.w3.org/2000/svg" xmlns:xlink="http://www.w3.org/1999/xlink" width="400" height="400" viewBox="0, 0, 400,400"><g id="svgg"><path id="path0" d="M107.962 0.489 C 107.653 0.795,107.085 1.164,106.700 1.310 C 106.315 1.456,106.000 1.811,106.000 2.099 C 106.000 2.387,105.640 2.883,105.200 3.200 C 104.643 3.602,104.400 4.235,104.400 5.288 C 104.400 6.120,104.220 6.800,104.000 6.800 C 103.769 6.800,103.600 8.067,103.600 9.800 L 103.600 12.800 83.424 12.800 C 70.404 12.800,63.160 12.942,63.000 13.200 C 62.864 13.420,62.223 13.600,61.576 13.600 C 60.929 13.600,60.400 13.780,60.400 14.000 C 60.400 14.220,59.950 14.400,59.400 14.400 C 58.850 14.400,58.400 14.580,58.400 14.800 C 58.400 15.020,58.080 15.200,57.688 15.200 C 57.297 15.200,56.717 15.560,56.400 16.000 C 56.083 16.440,55.581 16.800,55.284 16.800 C 54.577 16.800,48.800 22.717,48.800 23.441 C 48.800 23.748,48.620 24.000,48.400 24.000 C 48.180 24.000,48.000 24.360,48.000 24.800 C 48.000 25.240,47.864 25.600,47.698 25.600 C 47.531 25.600,47.156 26.185,46.864 26.900 C 46.572 27.615,46.180 28.560,45.994 29.000 C 45.807 29.440,45.519 30.430,45.354 31.200 C 44.879 33.415,44.725 380.485,45.199 380.959 C 45.420 381.180,45.600 381.943,45.600 382.656 C 45.600 383.369,45.780 384.064,46.000 384.200 C 46.220 384.336,46.400 384.887,46.400 385.424 C 46.400 385.961,46.580 386.400,46.800 386.400 C 47.020 386.400,47.200 386.760,47.200 387.200 C 47.200 387.640,47.336 388.000,47.502 388.000 C 47.669 388.000,48.041 388.534,48.330 389.188 C 48.970 390.632,54.531 396.400,55.284 396.400 C 55.581 396.400,56.083 396.760,56.400 397.200 C 56.717 397.640,57.297 398.000,57.688 398.000 C 58.080 398.000,58.400 398.180,58.400 398.400 C 58.400 398.620,58.835 398.800,59.367 398.800 C 59.898 398.800,60.408 399.025,60.500 399.300 C 60.777 400.131,168.905 400.238,169.735 399.408 C 170.069 399.074,170.524 398.800,170.744 398.800 C 170.965 398.800,171.260 398.440,171.400 398.000 C 171.540 397.560,171.800 397.200,171.978 397.200 C 172.832 397.200,173.828 392.573,173.039 392.270 C 172.750 392.159,172.396 391.338,172.254 390.445 C 171.923 388.380,169.987 386.137,167.680 385.149 C 166.005 384.431,163.914 384.400,116.412 384.400 L 66.890 384.400 64.961 383.100 C 63.899 382.385,62.664 381.170,62.216 380.400 L 61.400 379.000 61.400 206.761 C 61.400 55.447,61.472 34.380,61.992 33.361 C 64.306 28.827,64.590 28.774,86.158 28.896 L 104.600 29.000 104.708 37.490 L 104.816 45.981 103.908 46.188 C 103.409 46.303,98.651 46.442,93.336 46.498 L 83.672 46.600 82.136 47.842 C 81.291 48.526,80.240 49.696,79.800 50.442 C 78.620 52.445,78.525 360.531,79.704 362.687 C 80.726 364.557,82.327 365.900,84.359 366.592 C 87.072 367.517,312.928 367.517,315.641 366.592 C 317.673 365.900,319.274 364.557,320.296 362.687 C 321.475 360.531,321.380 52.445,320.200 50.442 C 319.760 49.696,318.709 48.526,317.864 47.842 L 316.328 46.600 306.664 46.498 C 301.349 46.442,296.591 46.303,296.092 46.188 L 295.184 45.981 295.292 37.490 L 295.400 29.000 313.842 28.896 C 335.410 28.774,335.694 28.827,338.008 33.361 C 338.528 34.380,338.600 55.447,338.600 206.761 L 338.600 379.000 337.784 380.400 C 337.336 381.170,336.101 382.385,335.039 383.100 L 333.110 384.400 283.588 384.400 C 236.086 384.400,233.995 384.431,232.320 385.149 C 230.013 386.137,228.077 388.380,227.746 390.445 C 227.604 391.338,227.250 392.159,226.961 392.270 C 226.172 392.573,227.168 397.200,228.022 397.200 C 228.200 397.200,228.460 397.560,228.600 398.000 C 228.740 398.440,229.035 398.800,229.256 398.800 C 229.476 398.800,229.931 399.074,230.265 399.408 C 231.095 400.238,339.223 400.131,339.500 399.300 C 339.592 399.025,340.102 398.800,340.633 398.800 C 341.165 398.800,341.600 398.620,341.600 398.400 C 341.600 398.180,341.920 398.000,342.312 398.000 C 342.703 398.000,343.283 397.640,343.600 397.200 C 343.917 396.760,344.419 396.400,344.716 396.400 C 345.469 396.400,351.030 390.632,351.670 389.188 C 351.959 388.534,352.331 388.000,352.498 388.000 C 352.664 388.000,352.800 387.640,352.800 387.200 C 352.800 386.760,352.980 386.400,353.200 386.400 C 353.420 386.400,353.600 385.961,353.600 385.424 C 353.600 384.887,353.780 384.336,354.000 384.200 C 354.220 384.064,354.400 383.243,354.400 382.376 C 354.400 381.509,354.580 380.800,354.801 380.800 C 355.275 380.800,355.121 33.416,354.646 31.200 C 354.481 30.430,354.193 29.440,354.006 29.000 C 353.820 28.560,353.428 27.615,353.136 26.900 C 352.844 26.185,352.469 25.600,352.302 25.600 C 352.136 25.600,352.000 25.240,352.000 24.800 C 352.000 24.360,351.820 24.000,351.600 24.000 C 351.380 24.000,351.200 23.748,351.200 23.441 C 351.200 22.717,345.423 16.800,344.716 16.800 C 344.419 16.800,343.917 16.440,343.600 16.000 C 343.283 15.560,342.703 15.200,342.312 15.200 C 341.920 15.200,341.600 15.020,341.600 14.800 C 341.600 14.580,341.150 14.400,340.600 14.400 C 340.050 14.400,339.600 14.220,339.600 14.000 C 339.600 13.780,339.071 13.600,338.424 13.600 C 337.777 13.600,337.136 13.420,337.000 13.200 C 336.840 12.942,329.596 12.800,316.576 12.800 L 296.400 12.800 296.400 9.800 C 296.400 8.067,296.231 6.800,296.000 6.800 C 295.780 6.800,295.600 6.120,295.600 5.288 C 295.600 4.235,295.357 3.602,294.800 3.200 C 294.360 2.883,294.000 2.387,294.000 2.099 C 294.000 1.811,293.685 1.456,293.300 1.310 C 292.915 1.164,292.347 0.795,292.038 0.489 C 291.610 0.065,290.459 -0.036,287.223 0.066 L 282.971 0.200 281.586 1.625 C 279.385 3.889,279.200 4.445,279.200 8.795 L 279.200 12.800 258.600 12.800 L 238.000 12.800 238.000 9.224 C 238.000 7.257,237.820 5.536,237.600 5.400 C 237.380 5.264,237.200 4.803,237.200 4.376 C 237.200 3.949,237.064 3.600,236.898 3.600 C 236.731 3.600,236.364 3.077,236.081 2.438 C 235.219 0.491,233.330 -0.110,228.628 0.064 L 224.559 0.214 223.080 1.694 C 222.266 2.508,221.600 3.449,221.600 3.787 C 221.600 4.124,221.420 4.400,221.200 4.400 C 220.959 4.400,220.800 6.067,220.800 8.600 L 220.800 12.800 200.000 12.800 L 179.200 12.800 179.200 8.600 C 179.200 6.067,179.041 4.400,178.800 4.400 C 178.580 4.400,178.400 4.124,178.400 3.787 C 178.400 3.449,177.734 2.508,176.920 1.694 L 175.441 0.214 171.372 0.064 C 166.670 -0.110,164.781 0.491,163.919 2.438 C 163.636 3.077,163.269 3.600,163.102 3.600 C 162.936 3.600,162.800 3.949,162.800 4.376 C 162.800 4.803,162.620 5.264,162.400 5.400 C 162.180 5.536,162.000 7.257,162.000 9.224 L 162.000 12.800 141.400 12.800 L 120.800 12.800 120.800 8.795 C 120.800 4.445,120.615 3.889,118.414 1.625 L 117.029 0.200 112.777 0.066 C 109.541 -0.036,108.390 0.065,107.962 0.489 M163.108 37.371 C 163.192 43.801,163.099 45.817,162.708 46.065 C 162.124 46.436,121.590 46.525,120.633 46.157 C 119.972 45.904,119.628 29.705,120.270 29.063 C 120.419 28.915,130.094 28.840,141.770 28.897 L 163.000 29.000 163.108 37.371 M221.508 37.371 C 221.592 43.801,221.499 45.817,221.108 46.065 C 220.524 46.436,179.990 46.525,179.033 46.157 C 178.372 45.904,178.028 29.705,178.670 29.063 C 178.819 28.915,188.494 28.840,200.170 28.897 L 221.400 29.000 221.508 37.371 M279.908 37.371 C 279.992 43.801,279.899 45.817,279.508 46.065 C 278.924 46.436,238.390 46.525,237.433 46.157 C 236.772 45.904,236.428 29.705,237.070 29.063 C 237.219 28.915,246.894 28.840,258.570 28.897 L 279.800 29.000 279.908 37.371 M305.600 177.187 L 305.600 292.773 278.900 292.887 C 249.239 293.013,250.811 292.866,248.643 295.708 C 246.897 297.997,246.820 299.274,246.810 326.100 L 246.800 351.600 170.600 351.600 L 94.400 351.600 94.400 206.600 L 94.400 61.600 200.000 61.600 L 305.600 61.600 305.600 177.187 M247.297 78.327 C 244.811 79.079,243.094 81.305,241.996 85.200 C 241.717 86.190,241.290 87.495,241.047 88.100 L 240.605 89.200 199.449 89.200 C 153.912 89.200,156.112 89.074,153.331 91.851 C 150.636 94.542,150.616 96.676,153.200 105.800 C 153.449 106.680,153.809 108.030,154.000 108.800 C 154.191 109.570,154.551 110.920,154.800 111.800 C 155.049 112.680,155.409 114.030,155.600 114.800 C 155.791 115.570,156.126 116.830,156.346 117.600 C 156.736 118.971,157.632 122.301,159.169 128.100 C 159.591 129.695,160.209 131.990,160.541 133.200 C 160.874 134.410,161.696 137.470,162.368 140.000 C 163.040 142.530,164.011 146.161,164.524 148.070 C 166.136 154.054,168.081 155.632,174.200 155.917 C 178.394 156.113,179.042 156.458,177.019 157.418 C 171.055 160.248,172.052 169.367,178.524 171.179 C 186.849 173.509,192.014 161.135,184.254 157.452 C 181.377 156.087,182.480 156.000,202.576 156.000 C 221.452 156.000,224.378 156.172,221.659 157.119 C 214.349 159.668,216.937 171.600,224.800 171.600 C 232.519 171.600,235.117 158.872,227.774 157.029 C 225.918 156.563,227.219 156.000,230.152 156.000 C 236.148 156.000,239.026 153.928,240.429 148.600 C 240.603 147.940,241.117 146.005,241.572 144.300 C 242.028 142.595,242.772 139.805,243.228 138.100 C 243.683 136.395,244.235 134.370,244.454 133.600 C 244.674 132.830,245.009 131.570,245.200 130.800 C 245.391 130.030,245.751 128.680,246.000 127.800 C 246.249 126.920,246.609 125.570,246.800 124.800 C 246.991 124.030,247.326 122.770,247.546 122.000 C 248.023 120.327,249.311 115.509,250.355 111.500 C 255.695 90.977,254.631 92.800,261.269 92.800 C 266.865 92.800,267.760 92.559,269.675 90.536 C 272.677 87.362,272.140 82.074,268.536 79.323 L 267.064 78.200 257.632 78.127 C 252.444 78.087,247.794 78.177,247.297 78.327 M235.883 105.900 C 235.769 106.505,235.299 108.395,234.838 110.100 C 234.377 111.805,233.654 114.505,233.231 116.100 C 232.809 117.695,232.192 119.990,231.861 121.200 C 230.901 124.711,229.636 129.444,228.331 134.400 C 227.665 136.930,226.952 139.315,226.746 139.700 C 226.260 140.609,178.489 140.806,178.235 139.900 C 178.157 139.625,177.891 138.680,177.642 137.800 C 177.393 136.920,176.308 132.870,175.230 128.800 C 173.165 121.002,171.853 116.055,170.194 109.817 C 169.640 107.736,169.081 105.756,168.951 105.417 C 168.739 104.864,172.220 104.800,202.403 104.800 L 236.091 104.800 235.883 105.900 M271.955 180.552 C 270.764 180.977,267.349 183.471,263.049 187.054 C 262.636 187.398,260.660 188.933,258.659 190.465 L 255.021 193.250 253.179 191.256 C 247.320 184.917,239.035 187.246,239.035 195.232 C 239.035 198.416,239.044 198.429,245.687 205.201 C 251.571 211.199,254.496 212.324,258.252 210.034 C 259.931 209.010,279.203 193.683,280.135 192.630 C 285.190 186.921,279.138 177.985,271.955 180.552 M125.891 193.731 C 120.365 195.450,118.539 201.891,122.375 206.133 C 124.530 208.515,122.042 208.400,171.314 208.400 L 216.530 208.400 218.220 207.410 C 223.981 204.033,222.706 195.553,216.154 193.673 C 213.807 192.999,128.067 193.054,125.891 193.731 M270.932 224.402 C 270.235 224.812,266.488 227.679,262.605 230.774 C 254.321 237.375,255.674 236.935,252.577 234.038 C 246.295 228.161,237.590 231.957,239.045 239.939 C 239.419 241.996,240.314 243.184,245.359 248.329 C 252.816 255.933,255.011 256.269,261.815 250.844 C 263.363 249.610,265.326 248.060,266.177 247.400 C 267.029 246.740,268.279 245.750,268.957 245.200 C 269.635 244.650,270.462 243.982,270.795 243.716 C 281.178 235.410,282.000 234.485,282.000 231.103 C 282.000 225.583,275.557 221.683,270.932 224.402 M124.600 234.066 C 118.988 237.162,118.960 245.026,124.551 247.815 C 125.558 248.318,132.098 248.400,171.107 248.400 L 216.491 248.400 218.039 247.530 C 223.007 244.738,223.115 237.459,218.230 234.596 L 216.530 233.600 170.965 233.612 C 138.512 233.621,125.170 233.751,124.600 234.066 M124.485 274.184 C 119.452 276.962,118.886 283.353,123.352 286.968 L 124.874 288.200 170.966 288.200 L 217.059 288.200 218.450 287.246 C 223.051 284.094,222.929 277.350,218.220 274.590 L 216.530 273.600 170.965 273.639 C 135.075 273.670,125.206 273.786,124.485 274.184 M294.400 308.288 C 294.400 308.677,263.096 340.000,262.707 340.000 C 262.538 340.000,262.400 332.800,262.400 324.000 L 262.400 308.000 278.400 308.000 C 287.200 308.000,294.400 308.130,294.400 308.288 M124.600 314.167 C 119.767 316.324,118.868 323.386,123.005 326.687 C 125.706 328.843,124.444 328.787,171.240 328.794 C 214.479 328.800,215.685 328.766,218.343 327.476 C 222.930 325.250,222.854 317.306,218.220 314.590 L 216.530 313.600 171.165 313.616 C 134.154 313.628,125.579 313.730,124.600 314.167 M305.600 335.600 L 305.600 351.600 289.600 351.600 C 280.800 351.600,273.600 351.466,273.600 351.302 C 273.600 350.910,304.906 319.600,305.298 319.600 C 305.464 319.600,305.600 326.800,305.600 335.600 M197.800 384.883 C 192.338 386.792,190.137 394.174,193.829 398.204 L 195.291 399.800 199.964 399.800 C 204.416 399.800,204.683 399.753,205.630 398.800 C 211.390 393.004,205.338 382.248,197.800 384.883 " stroke="none" fill="#040404" fill-rule="evenodd"></path><path id="path1" d="M94.800 206.600 L 94.800 351.200 170.587 351.200 L 246.373 351.200 246.487 324.500 C 246.595 298.911,246.632 297.750,247.372 296.600 C 248.831 294.332,250.127 293.399,253.160 292.433 C 254.076 292.141,262.784 292.000,279.860 292.000 L 305.200 292.000 305.200 177.000 L 305.200 62.000 200.000 62.000 L 94.800 62.000 94.800 206.600 M266.563 77.756 C 273.400 80.136,274.161 89.326,267.800 92.710 C 266.954 93.160,265.019 93.415,261.246 93.574 L 255.892 93.800 255.102 96.200 C 254.668 97.520,254.165 99.230,253.983 100.000 C 253.802 100.770,253.476 102.030,253.260 102.800 C 253.044 103.570,252.415 105.910,251.863 108.000 C 250.832 111.896,248.323 121.304,246.794 127.000 C 246.321 128.760,245.577 131.550,245.140 133.200 C 244.703 134.850,244.165 136.830,243.946 137.600 C 243.726 138.370,243.391 139.630,243.200 140.400 C 243.009 141.170,242.644 142.520,242.389 143.400 C 242.134 144.280,241.832 145.587,241.719 146.304 C 241.605 147.021,241.351 147.706,241.156 147.827 C 240.960 147.948,240.800 148.566,240.800 149.200 C 240.800 149.834,240.620 150.464,240.400 150.600 C 240.180 150.736,240.000 151.130,240.000 151.476 C 240.000 152.294,236.694 155.600,235.876 155.600 C 235.530 155.600,235.136 155.780,235.000 156.000 C 234.864 156.220,233.188 156.414,231.276 156.432 C 229.364 156.449,228.054 156.564,228.365 156.687 C 235.757 159.609,233.037 172.000,225.004 172.000 C 216.586 172.000,213.480 159.491,221.200 156.681 C 221.530 156.561,213.255 156.449,202.811 156.432 C 184.786 156.402,183.872 156.435,184.811 157.084 C 191.620 161.790,188.576 172.000,180.363 172.000 C 172.779 172.000,169.572 162.013,175.725 157.555 L 177.320 156.400 174.056 156.400 C 168.713 156.400,165.990 154.645,164.654 150.339 C 164.021 148.301,163.769 147.390,162.758 143.500 C 162.515 142.565,162.155 141.387,161.958 140.881 C 161.761 140.376,161.600 139.531,161.600 139.005 C 161.600 138.478,161.440 137.948,161.244 137.827 C 161.049 137.706,160.791 137.021,160.673 136.304 C 160.315 134.141,159.958 132.644,159.600 131.800 C 159.413 131.360,159.169 130.550,159.058 130.000 C 158.947 129.450,158.651 128.280,158.401 127.400 C 158.151 126.520,157.791 125.170,157.600 124.400 C 157.409 123.630,157.049 122.280,156.800 121.400 C 156.551 120.520,156.191 119.170,156.000 118.400 C 155.809 117.630,155.474 116.370,155.254 115.600 C 154.836 114.134,154.103 111.389,151.994 103.400 C 150.127 96.331,150.505 93.149,153.489 90.801 C 156.139 88.716,154.243 88.800,198.785 88.800 L 240.272 88.800 240.775 87.100 C 241.052 86.165,241.440 85.087,241.639 84.705 C 241.838 84.323,242.000 83.766,242.000 83.467 C 242.000 81.722,245.314 78.000,246.868 78.000 C 247.244 78.000,247.664 77.820,247.800 77.600 C 248.198 76.956,264.657 77.092,266.563 77.756 M277.916 180.361 C 284.878 183.931,284.016 190.709,275.800 197.000 C 274.326 198.128,262.297 207.706,260.635 209.074 C 256.218 212.709,250.980 212.189,247.238 207.743 C 246.709 207.114,244.633 204.890,242.625 202.800 C 238.453 198.459,237.581 196.455,238.522 193.367 C 240.657 186.362,247.637 184.896,252.953 190.336 C 254.962 192.393,255.397 192.490,256.916 191.226 C 270.892 179.589,273.639 178.168,277.916 180.361 M217.285 193.378 C 223.520 195.983,224.062 204.698,218.200 208.078 L 216.600 209.000 171.161 209.000 C 122.192 209.000,124.766 209.106,122.563 207.000 C 118.081 202.716,119.053 196.397,124.623 193.619 C 126.738 192.563,214.788 192.334,217.285 193.378 M278.400 224.056 C 281.170 225.744,282.400 227.941,282.400 231.203 C 282.400 234.473,281.109 236.412,276.807 239.600 C 276.065 240.150,274.907 241.050,274.234 241.600 C 273.561 242.150,272.648 242.896,272.205 243.259 C 254.505 257.740,254.295 257.788,245.669 249.404 C 238.411 242.350,237.242 240.055,238.796 235.901 C 241.157 229.592,248.083 228.586,253.209 233.809 C 255.422 236.064,255.002 236.150,259.583 232.500 C 261.722 230.795,264.065 228.950,264.789 228.400 C 265.513 227.850,266.729 226.860,267.492 226.200 C 271.139 223.044,275.373 222.212,278.400 224.056 M217.647 233.658 C 224.529 236.619,223.673 246.714,216.362 248.811 C 214.299 249.402,127.313 249.333,125.560 248.739 C 118.274 246.268,117.788 236.475,124.800 233.438 C 126.023 232.908,131.865 232.829,170.926 232.816 L 215.652 232.800 217.647 233.658 M218.538 274.062 C 223.098 277.214,223.638 283.080,219.738 287.103 C 217.632 289.277,219.419 289.200,170.790 289.200 C 141.393 289.200,125.962 289.063,125.800 288.800 C 125.664 288.580,125.276 288.400,124.938 288.400 C 123.927 288.400,122.025 286.823,120.906 285.057 C 118.041 280.536,120.807 274.270,126.200 273.062 C 126.640 272.963,147.250 272.909,172.000 272.941 L 217.000 273.000 218.538 274.062 M262.800 324.067 C 262.800 332.463,262.883 339.258,262.983 339.167 C 263.084 339.075,269.986 332.205,278.320 323.900 L 293.473 308.800 278.137 308.800 L 262.800 308.800 262.800 324.067 M218.293 313.970 C 224.280 317.399,223.338 326.794,216.811 328.750 C 214.288 329.505,126.921 329.377,125.097 328.615 C 119.213 326.156,117.902 318.978,122.587 314.865 C 123.946 313.672,124.498 313.436,126.800 313.061 C 127.350 312.972,147.780 312.922,172.200 312.949 L 216.600 313.000 218.293 313.970 M289.800 335.782 L 274.600 351.000 289.762 351.105 C 298.101 351.163,304.988 351.145,305.067 351.067 C 305.145 350.988,305.162 344.093,305.105 335.744 L 305.000 320.564 289.800 335.782 " stroke="none" fill="#fbf3ba" fill-rule="evenodd"></path><path id="path2" d="M67.000 29.683 C 65.204 30.310,63.341 31.836,62.631 33.258 C 61.664 35.197,61.664 378.003,62.631 379.942 C 63.366 381.416,65.230 382.899,67.160 383.545 C 68.147 383.875,81.992 384.000,117.680 384.000 C 162.127 384.000,166.962 384.062,168.120 384.646 C 170.818 386.007,172.619 388.411,172.879 391.000 L 173.000 392.200 182.500 392.307 L 192.000 392.414 192.000 391.052 C 192.000 387.677,196.183 384.000,200.022 384.000 C 203.785 384.000,208.000 387.726,208.000 391.052 L 208.000 392.414 217.500 392.307 L 227.000 392.200 227.121 391.000 C 227.381 388.411,229.182 386.007,231.880 384.646 C 233.038 384.062,237.873 384.000,282.320 384.000 C 318.008 384.000,331.853 383.875,332.840 383.545 C 334.770 382.899,336.634 381.416,337.369 379.942 C 338.336 378.003,338.336 35.197,337.369 33.258 C 336.634 31.784,334.770 30.301,332.840 29.655 C 331.904 29.342,325.887 29.200,313.532 29.200 L 295.584 29.200 295.692 37.500 L 295.800 45.800 306.272 46.000 C 317.970 46.223,317.554 46.123,320.177 49.363 L 321.400 50.874 321.400 206.537 L 321.400 362.200 320.415 363.600 C 319.172 365.365,318.588 365.857,316.600 366.813 C 314.086 368.022,85.914 368.022,83.400 366.813 C 81.412 365.857,80.828 365.365,79.585 363.600 L 78.600 362.200 78.497 207.652 C 78.388 42.874,78.286 51.068,80.472 48.579 C 82.545 46.218,82.554 46.216,93.800 46.000 L 104.200 45.800 104.308 37.500 L 104.416 29.200 86.308 29.232 C 74.789 29.252,67.763 29.416,67.000 29.683 M120.492 37.500 L 120.600 45.800 141.500 45.904 L 162.400 46.007 162.400 37.604 L 162.400 29.200 141.392 29.200 L 120.384 29.200 120.492 37.500 M179.200 37.600 L 179.200 46.000 200.000 46.000 L 220.800 46.000 220.800 37.600 L 220.800 29.200 200.000 29.200 L 179.200 29.200 179.200 37.600 M237.600 37.604 L 237.600 46.007 258.500 45.904 L 279.400 45.800 279.508 37.500 L 279.616 29.200 258.608 29.200 L 237.600 29.200 237.600 37.604 M270.326 308.700 C 274.576 308.764,281.416 308.764,285.526 308.699 C 289.637 308.634,286.160 308.581,277.800 308.581 C 269.440 308.582,266.077 308.635,270.326 308.700 M284.595 317.700 L 279.000 323.400 284.700 317.805 C 289.995 312.608,290.581 312.000,290.295 312.000 C 290.237 312.000,287.672 314.565,284.595 317.700 M268.195 334.100 L 262.600 339.800 268.300 334.205 C 273.595 329.008,274.181 328.400,273.895 328.400 C 273.837 328.400,271.272 330.965,268.195 334.100 " stroke="none" fill="#fc7c7b" fill-rule="evenodd"></path><path id="path3" d="M65.800 29.627 C 64.024 30.514,62.901 31.617,62.000 33.361 C 61.469 34.387,61.400 54.441,61.400 206.761 L 61.400 379.000 62.216 380.400 C 62.664 381.170,63.899 382.385,64.961 383.100 L 66.890 384.400 116.412 384.400 C 163.914 384.400,166.005 384.431,167.680 385.149 C 169.973 386.132,171.924 388.381,172.249 390.419 C 172.555 392.329,173.125 392.913,172.894 391.079 C 172.546 388.321,170.835 386.015,168.120 384.646 C 166.962 384.062,162.127 384.000,117.680 384.000 C 81.992 384.000,68.147 383.875,67.160 383.545 C 65.230 382.899,63.366 381.416,62.631 379.942 C 61.664 378.003,61.664 35.197,62.631 33.258 C 63.366 31.784,65.230 30.301,67.160 29.655 C 68.096 29.342,74.113 29.200,86.468 29.200 L 104.416 29.200 104.308 37.500 L 104.200 45.800 93.800 46.000 C 82.554 46.216,82.545 46.218,80.472 48.579 C 78.286 51.068,78.388 42.874,78.497 207.652 L 78.600 362.200 79.585 363.600 C 80.828 365.365,81.412 365.857,83.400 366.813 C 85.914 368.022,314.086 368.022,316.600 366.813 C 318.588 365.857,319.172 365.365,320.415 363.600 L 321.400 362.200 321.400 206.537 L 321.400 50.874 320.177 49.363 C 317.554 46.123,317.970 46.223,306.272 46.000 L 295.800 45.800 295.692 37.500 L 295.584 29.200 313.532 29.200 C 325.887 29.200,331.904 29.342,332.840 29.655 C 334.770 30.301,336.634 31.784,337.369 33.258 C 338.336 35.197,338.336 378.003,337.369 379.942 C 336.634 381.416,334.770 382.899,332.840 383.545 C 331.853 383.875,318.008 384.000,282.320 384.000 C 237.873 384.000,233.038 384.062,231.880 384.646 C 229.165 386.015,227.454 388.321,227.106 391.079 C 226.875 392.913,227.445 392.329,227.751 390.419 C 228.076 388.381,230.027 386.132,232.320 385.149 C 233.995 384.431,236.086 384.400,283.588 384.400 L 333.110 384.400 335.039 383.100 C 336.101 382.385,337.336 381.170,337.784 380.400 L 338.600 379.000 338.600 206.761 C 338.600 55.447,338.528 34.380,338.008 33.361 C 335.694 28.827,335.410 28.774,313.842 28.896 L 295.400 29.000 295.292 37.490 L 295.184 45.981 296.092 46.188 C 296.591 46.303,301.349 46.442,306.664 46.498 L 316.328 46.600 317.864 47.842 C 318.709 48.526,319.760 49.696,320.200 50.442 C 321.380 52.445,321.475 360.531,320.296 362.687 C 319.274 364.557,317.673 365.900,315.641 366.592 C 312.928 367.517,87.072 367.517,84.359 366.592 C 82.327 365.900,80.726 364.557,79.704 362.687 C 78.525 360.531,78.620 52.445,79.800 50.442 C 80.240 49.696,81.291 48.526,82.136 47.842 L 83.672 46.600 93.336 46.498 C 98.651 46.442,103.409 46.303,103.908 46.188 L 104.816 45.981 104.708 37.490 L 104.600 29.000 86.000 28.914 C 68.112 28.831,67.339 28.858,65.800 29.627 M120.270 29.063 C 119.628 29.705,119.972 45.904,120.633 46.157 C 121.590 46.525,162.124 46.436,162.708 46.065 C 163.099 45.817,163.192 43.801,163.108 37.371 L 163.000 29.000 141.770 28.897 C 130.094 28.840,120.419 28.915,120.270 29.063 M178.670 29.063 C 178.028 29.705,178.372 45.904,179.033 46.157 C 179.990 46.525,220.524 46.436,221.108 46.065 C 221.499 45.817,221.592 43.801,221.508 37.371 L 221.400 29.000 200.170 28.897 C 188.494 28.840,178.819 28.915,178.670 29.063 M237.070 29.063 C 236.428 29.705,236.772 45.904,237.433 46.157 C 238.390 46.525,278.924 46.436,279.508 46.065 C 279.899 45.817,279.992 43.801,279.908 37.371 L 279.800 29.000 258.570 28.897 C 246.894 28.840,237.219 28.915,237.070 29.063 M162.400 37.604 L 162.400 46.007 141.500 45.904 L 120.600 45.800 120.492 37.500 L 120.384 29.200 141.392 29.200 L 162.400 29.200 162.400 37.604 M220.800 37.600 L 220.800 46.000 200.000 46.000 L 179.200 46.000 179.200 37.600 L 179.200 29.200 200.000 29.200 L 220.800 29.200 220.800 37.600 M279.508 37.500 L 279.400 45.800 258.500 45.904 L 237.600 46.007 237.600 37.604 L 237.600 29.200 258.608 29.200 L 279.616 29.200 279.508 37.500 M147.100 61.900 C 176.195 61.957,223.805 61.957,252.900 61.900 C 281.995 61.843,258.190 61.797,200.000 61.797 C 141.810 61.797,118.005 61.843,147.100 61.900 M248.074 77.740 C 245.993 78.297,243.444 80.347,242.638 82.111 C 241.845 83.849,240.757 87.690,240.992 87.925 C 241.191 88.125,241.220 88.047,241.997 85.200 C 242.775 82.346,243.685 80.778,245.337 79.442 L 246.874 78.200 256.968 78.200 L 267.062 78.200 268.535 79.323 C 272.140 82.073,272.677 87.362,269.675 90.536 C 267.760 92.559,266.865 92.800,261.269 92.800 C 255.793 92.800,255.511 92.891,255.064 94.800 C 254.832 95.791,254.834 95.791,255.273 94.755 C 255.712 93.719,255.765 93.707,260.974 93.508 C 264.591 93.370,266.601 93.116,267.416 92.692 C 274.404 89.059,273.228 79.437,265.581 77.671 C 262.979 77.071,250.391 77.120,248.074 77.740 M199.400 88.800 L 158.200 89.006 199.500 89.103 C 226.831 89.167,240.800 89.065,240.800 88.800 C 240.800 88.580,240.755 88.444,240.700 88.497 C 240.645 88.551,222.060 88.687,199.400 88.800 M155.600 89.647 C 154.554 90.061,151.600 92.737,151.600 93.271 C 151.600 93.440,152.367 92.812,153.304 91.875 C 154.241 90.938,155.636 89.971,156.404 89.726 C 157.172 89.482,157.530 89.275,157.200 89.266 C 156.870 89.258,156.150 89.429,155.600 89.647 M151.043 94.633 C 150.720 95.474,150.783 98.815,151.139 99.717 C 151.295 100.111,151.417 98.986,151.411 97.217 C 151.399 93.716,151.398 93.708,151.043 94.633 M253.844 98.359 C 253.456 99.741,253.234 100.967,253.350 101.083 C 253.466 101.199,253.674 100.778,253.813 100.147 C 253.952 99.516,254.248 98.514,254.473 97.920 C 254.697 97.327,254.806 96.617,254.714 96.343 C 254.623 96.070,254.231 96.977,253.844 98.359 M151.634 101.200 C 151.646 101.530,151.811 102.160,152.000 102.600 L 152.344 103.400 152.366 102.600 C 152.378 102.160,152.213 101.530,152.000 101.200 C 151.655 100.667,151.615 100.667,151.634 101.200 M252.650 102.850 C 252.317 104.517,252.640 104.840,253.000 103.200 C 253.152 102.509,253.193 101.859,253.091 101.758 C 252.989 101.656,252.791 102.147,252.650 102.850 M152.434 104.400 C 152.446 104.730,152.611 105.360,152.800 105.800 L 153.144 106.600 153.166 105.800 C 153.178 105.360,153.013 104.730,152.800 104.400 C 152.455 103.867,152.415 103.867,152.434 104.400 M251.829 105.829 C 251.681 106.415,251.651 106.984,251.761 107.094 C 251.871 107.204,252.081 106.815,252.229 106.229 C 252.376 105.642,252.406 105.073,252.296 104.963 C 252.186 104.853,251.976 105.242,251.829 105.829 M153.246 107.200 C 153.265 107.530,153.424 108.250,153.600 108.800 L 153.920 109.800 153.954 108.800 C 153.973 108.250,153.813 107.530,153.600 107.200 C 153.255 106.667,153.216 106.667,153.246 107.200 M251.000 108.800 C 250.848 109.491,250.814 110.147,250.924 110.257 C 251.034 110.367,251.248 109.891,251.400 109.200 C 251.552 108.509,251.586 107.853,251.476 107.743 C 251.366 107.633,251.152 108.109,251.000 108.800 M154.034 110.400 C 154.046 110.730,154.211 111.360,154.400 111.800 L 154.744 112.600 154.766 111.800 C 154.778 111.360,154.613 110.730,154.400 110.400 C 154.055 109.867,154.015 109.867,154.034 110.400 M250.229 111.829 C 250.081 112.415,250.051 112.984,250.161 113.094 C 250.271 113.204,250.481 112.815,250.629 112.229 C 250.776 111.642,250.806 111.073,250.696 110.963 C 250.586 110.853,250.376 111.242,250.229 111.829 M154.846 113.200 C 154.865 113.530,155.024 114.250,155.200 114.800 L 155.520 115.800 155.554 114.800 C 155.573 114.250,155.413 113.530,155.200 113.200 C 154.855 112.667,154.816 112.667,154.846 113.200 M249.473 114.553 C 249.323 114.945,249.211 115.566,249.225 115.933 C 249.242 116.375,249.381 116.274,249.637 115.634 C 249.849 115.103,249.961 114.482,249.885 114.254 C 249.809 114.027,249.624 114.161,249.473 114.553 M155.803 117.001 C 155.951 117.660,156.229 118.740,156.420 119.400 C 156.612 120.060,157.149 122.040,157.614 123.800 C 158.079 125.560,158.731 127.990,159.061 129.200 C 159.392 130.410,159.995 132.660,160.400 134.200 C 160.805 135.740,161.399 137.990,161.719 139.200 C 162.039 140.410,162.422 141.916,162.570 142.547 C 162.718 143.178,162.930 143.603,163.042 143.491 C 163.221 143.312,162.535 140.490,160.539 133.200 C 160.208 131.990,159.591 129.695,159.169 128.100 C 158.746 126.505,158.028 123.805,157.572 122.100 C 157.117 120.395,156.593 118.401,156.407 117.668 C 155.980 115.983,155.443 115.389,155.803 117.001 M248.629 117.829 C 248.481 118.415,248.451 118.984,248.561 119.094 C 248.671 119.204,248.881 118.815,249.029 118.229 C 249.176 117.642,249.206 117.073,249.096 116.963 C 248.986 116.853,248.776 117.242,248.629 117.829 M247.873 120.553 C 247.723 120.945,247.611 121.566,247.625 121.933 C 247.642 122.375,247.781 122.274,248.037 121.634 C 248.249 121.103,248.361 120.482,248.285 120.254 C 248.209 120.027,248.024 120.161,247.873 120.553 M247.073 123.353 C 246.923 123.745,246.811 124.366,246.825 124.733 C 246.842 125.175,246.981 125.074,247.237 124.434 C 247.449 123.903,247.561 123.282,247.485 123.054 C 247.409 122.827,247.224 122.961,247.073 123.353 M246.273 126.553 C 246.123 126.945,246.011 127.566,246.025 127.933 C 246.042 128.375,246.181 128.274,246.437 127.634 C 246.649 127.103,246.761 126.482,246.685 126.254 C 246.609 126.027,246.424 126.161,246.273 126.553 M245.449 129.415 C 245.312 129.773,245.216 130.456,245.236 130.933 C 245.262 131.547,245.385 131.408,245.659 130.456 C 246.057 129.072,245.894 128.258,245.449 129.415 M244.673 132.553 C 244.523 132.945,244.411 133.566,244.425 133.933 C 244.442 134.375,244.581 134.274,244.837 133.634 C 245.049 133.103,245.161 132.482,245.085 132.254 C 245.009 132.027,244.824 132.161,244.673 132.553 M243.770 135.853 C 243.508 136.968,243.198 138.154,241.541 144.400 C 241.103 146.050,240.603 147.940,240.429 148.600 C 239.026 153.928,236.148 156.000,230.152 156.000 C 227.219 156.000,225.918 156.563,227.774 157.029 C 230.317 157.668,232.712 162.074,232.164 165.106 C 230.797 172.655,221.495 173.887,217.865 167.000 C 217.517 166.340,217.225 166.042,217.216 166.338 C 217.150 168.573,221.612 172.000,224.589 172.000 C 233.069 172.000,235.700 160.218,228.000 156.728 C 227.670 156.579,228.750 156.441,230.400 156.422 C 236.329 156.355,239.269 154.352,240.583 149.484 C 240.922 148.228,241.457 146.255,241.771 145.100 C 243.825 137.544,244.421 135.087,244.242 134.909 C 244.130 134.797,243.918 135.222,243.770 135.853 M163.240 144.280 C 163.185 144.947,164.331 149.267,164.641 149.561 C 164.780 149.692,164.759 149.174,164.595 148.409 C 164.161 146.386,163.286 143.720,163.240 144.280 M164.802 150.400 C 164.808 153.579,169.486 156.399,174.760 156.401 L 177.800 156.403 176.546 157.167 C 174.957 158.137,173.339 160.249,172.999 161.800 C 172.799 162.709,172.839 162.855,173.162 162.400 C 173.396 162.070,173.591 161.547,173.594 161.238 C 173.604 160.263,175.498 158.140,176.987 157.433 C 179.021 156.468,178.399 156.000,175.076 155.998 C 169.950 155.994,167.226 154.699,165.651 151.519 C 165.183 150.573,164.801 150.070,164.802 150.400 M182.800 156.381 C 182.800 156.591,183.454 157.073,184.254 157.452 C 189.984 160.171,188.850 169.450,182.573 171.208 C 179.458 172.080,175.336 170.488,174.144 167.953 C 173.897 167.429,173.491 166.550,173.240 166.000 C 172.795 165.025,172.789 165.030,173.016 166.200 C 173.347 167.910,175.172 170.020,177.231 171.073 C 185.617 175.362,192.781 163.137,185.129 157.595 L 183.480 156.400 202.840 156.402 C 220.581 156.405,222.100 156.457,221.000 157.025 C 219.490 157.806,218.434 158.800,219.114 158.800 C 219.381 158.800,219.600 158.633,219.600 158.429 C 219.600 158.225,220.312 157.744,221.181 157.360 C 222.051 156.977,222.670 156.514,222.558 156.331 C 222.264 155.856,182.800 155.906,182.800 156.381 M216.893 164.000 C 216.893 164.770,216.975 165.085,217.076 164.700 C 217.176 164.315,217.176 163.685,217.076 163.300 C 216.975 162.915,216.893 163.230,216.893 164.000 M272.400 180.021 C 271.964 180.318,272.192 180.362,273.236 180.182 C 275.339 179.820,277.817 180.640,279.705 182.322 C 281.349 183.786,281.357 183.788,280.489 182.547 C 278.915 180.297,274.170 178.815,272.400 180.021 M269.179 181.687 C 268.200 182.395,267.310 183.074,267.200 183.195 C 266.409 184.068,255.603 192.400,255.262 192.400 C 255.026 192.400,254.159 191.673,253.337 190.783 C 251.714 189.030,249.300 187.367,248.923 187.743 C 248.795 187.872,249.164 188.158,249.744 188.379 C 250.324 188.599,251.754 189.782,252.921 191.006 L 255.043 193.233 258.670 190.456 C 260.665 188.929,262.636 187.398,263.049 187.054 C 265.517 184.997,270.320 181.268,271.000 180.880 C 271.440 180.629,271.610 180.419,271.379 180.412 C 271.147 180.405,270.157 180.979,269.179 181.687 M282.109 187.600 C 282.109 188.590,282.187 188.995,282.282 188.500 C 282.378 188.005,282.378 187.195,282.282 186.700 C 282.187 186.205,282.109 186.610,282.109 187.600 M245.300 187.487 C 245.905 187.578,246.895 187.578,247.500 187.487 C 248.105 187.395,247.610 187.320,246.400 187.320 C 245.190 187.320,244.695 187.395,245.300 187.487 M241.934 188.587 C 239.303 190.374,237.707 194.564,238.683 197.124 C 238.942 197.802,239.035 197.317,239.035 195.301 C 239.035 192.044,241.133 188.468,243.076 188.413 C 243.609 188.398,244.237 187.600,243.716 187.600 C 243.535 187.600,242.732 188.044,241.934 188.587 M281.317 190.611 C 280.747 192.213,280.053 192.924,275.500 196.567 C 273.355 198.283,271.600 199.780,271.600 199.893 C 271.600 200.132,271.454 200.241,276.489 196.229 C 280.259 193.225,282.238 190.915,281.903 189.910 C 281.814 189.641,281.550 189.957,281.317 190.611 M125.362 193.522 C 122.824 194.573,119.795 197.529,120.517 198.251 C 120.660 198.394,120.949 198.060,121.158 197.510 C 121.709 196.062,124.223 194.140,126.225 193.635 C 128.870 192.969,213.743 193.030,216.290 193.700 C 217.520 194.023,218.723 194.730,219.696 195.700 C 220.523 196.525,221.200 197.034,221.200 196.831 C 221.200 196.052,217.872 193.663,216.199 193.242 C 212.932 192.419,127.388 192.683,125.362 193.522 M221.642 199.191 C 222.071 201.097,221.763 203.365,220.894 204.700 C 220.572 205.195,220.465 205.600,220.656 205.600 C 221.850 205.600,222.746 198.986,221.695 197.935 C 221.386 197.626,221.371 197.983,221.642 199.191 M239.731 199.343 C 240.558 200.614,249.663 210.071,249.865 209.868 C 249.937 209.796,249.052 208.754,247.898 207.552 C 246.744 206.350,244.270 203.759,242.400 201.794 C 240.530 199.828,239.329 198.725,239.731 199.343 M120.154 201.299 C 120.205 202.952,120.447 204.192,120.778 204.499 C 121.223 204.912,121.260 204.859,120.989 204.200 C 120.809 203.760,120.528 202.320,120.365 201.000 L 120.069 198.600 120.154 201.299 M265.800 204.275 C 258.166 210.442,257.560 210.792,254.422 210.841 C 251.966 210.880,251.892 210.907,253.252 211.270 C 255.618 211.901,260.492 209.716,263.200 206.810 C 263.310 206.692,264.059 206.104,264.865 205.504 C 265.671 204.903,266.571 204.182,266.865 203.900 C 267.278 203.505,269.692 201.610,271.167 200.523 C 271.258 200.455,271.258 200.327,271.167 200.237 C 271.075 200.148,268.660 201.965,265.800 204.275 M122.201 206.333 C 124.553 208.947,121.616 208.800,171.371 208.800 L 216.643 208.800 218.522 207.609 C 219.555 206.954,220.400 206.328,220.400 206.218 C 220.400 206.108,219.555 206.554,218.522 207.209 L 216.643 208.400 171.341 208.400 C 122.563 208.400,125.008 208.509,122.401 206.225 L 121.002 205.000 122.201 206.333 M270.178 224.450 C 269.090 225.138,268.110 225.817,268.000 225.960 C 267.890 226.104,266.990 226.841,266.000 227.600 C 265.010 228.359,264.110 229.075,264.000 229.192 C 263.890 229.309,262.951 230.034,261.912 230.803 C 260.874 231.571,260.019 232.363,260.012 232.562 C 260.006 232.761,260.315 232.656,260.700 232.328 C 263.794 229.695,269.768 225.092,270.960 224.422 C 274.325 222.533,279.371 224.024,280.963 227.379 C 281.351 228.196,281.756 228.777,281.864 228.670 C 282.172 228.361,280.969 226.285,279.938 225.347 C 277.139 222.801,273.340 222.452,270.178 224.450 M282.101 231.000 C 282.105 231.880,282.187 232.193,282.283 231.695 C 282.379 231.198,282.375 230.478,282.275 230.095 C 282.175 229.713,282.096 230.120,282.101 231.000 M244.096 230.934 C 242.525 231.503,240.179 233.318,239.590 234.418 C 239.356 234.856,239.957 234.422,240.927 233.452 C 244.420 229.959,248.451 230.178,252.631 234.089 L 255.210 236.502 256.771 235.420 C 257.629 234.825,258.662 233.951,259.066 233.476 C 259.872 232.530,259.520 232.744,256.912 234.790 L 255.224 236.114 252.690 233.744 C 249.365 230.634,247.029 229.870,244.096 230.934 M126.400 233.200 C 125.850 233.376,145.920 233.526,171.000 233.532 C 196.770 233.539,216.252 233.394,215.800 233.200 C 214.790 232.766,127.755 232.766,126.400 233.200 M280.910 234.776 C 280.170 236.064,278.341 237.679,270.795 243.716 C 270.462 243.982,269.635 244.650,268.957 245.200 C 268.279 245.750,267.029 246.740,266.177 247.400 C 265.326 248.060,263.363 249.610,261.815 250.844 C 255.011 256.269,252.816 255.933,245.359 248.329 C 239.347 242.198,239.035 241.704,239.035 238.299 C 239.035 236.283,238.942 235.798,238.683 236.476 C 237.479 239.634,238.794 242.202,244.721 248.273 C 252.309 256.044,254.936 256.693,260.657 252.211 C 278.150 238.507,282.869 234.335,281.934 233.401 C 281.853 233.320,281.393 233.939,280.910 234.776 M123.345 234.484 C 121.948 235.476,120.154 237.887,120.531 238.264 C 120.667 238.400,120.945 238.081,121.149 237.555 C 121.541 236.544,123.263 234.803,124.600 234.066 C 125.040 233.823,125.217 233.619,124.994 233.612 C 124.771 233.605,124.029 233.998,123.345 234.484 M218.271 234.609 C 223.105 237.507,223.015 244.513,218.103 247.486 C 216.556 248.423,216.572 248.751,218.126 247.950 C 223.030 245.424,223.666 238.421,219.317 234.836 C 218.492 234.156,217.544 233.602,217.209 233.604 C 216.874 233.606,217.352 234.058,218.271 234.609 M120.124 241.000 C 120.126 242.320,120.201 242.812,120.290 242.093 C 120.379 241.374,120.377 240.294,120.286 239.693 C 120.195 239.092,120.122 239.680,120.124 241.000 M121.200 245.325 C 121.200 245.394,121.785 245.979,122.500 246.625 L 123.800 247.800 122.625 246.500 C 121.530 245.288,121.200 245.016,121.200 245.325 M127.000 248.823 C 129.090 249.255,212.910 249.255,215.000 248.823 C 215.880 248.641,196.080 248.492,171.000 248.492 C 145.920 248.492,126.120 248.641,127.000 248.823 M124.007 274.052 C 123.241 274.519,122.380 275.193,122.093 275.551 C 120.843 277.110,120.309 278.042,120.535 278.268 C 120.668 278.402,120.945 278.081,121.149 277.555 C 121.539 276.549,123.189 274.941,124.695 274.100 C 125.396 273.708,135.427 273.600,171.059 273.600 L 216.530 273.600 218.220 274.590 C 222.928 277.350,223.051 284.093,218.451 287.246 L 217.059 288.200 171.429 288.400 C 146.333 288.510,126.250 288.733,126.800 288.895 C 128.568 289.415,213.671 289.262,215.959 288.734 C 223.404 287.015,224.554 277.300,217.720 273.847 C 216.563 273.262,212.053 273.200,170.920 273.201 L 125.400 273.203 124.007 274.052 M120.124 281.000 C 120.126 282.320,120.201 282.812,120.290 282.093 C 120.379 281.374,120.377 280.294,120.286 279.693 C 120.195 279.092,120.122 279.680,120.124 281.000 M121.592 285.814 C 122.152 286.739,124.534 288.401,125.294 288.398 C 125.572 288.396,125.260 288.115,124.600 287.772 C 123.940 287.430,122.882 286.666,122.250 286.075 C 121.409 285.289,121.232 285.219,121.592 285.814 M278.800 292.392 C 249.592 292.620,251.138 292.483,248.749 295.064 C 247.331 296.597,246.792 297.728,246.840 299.074 C 246.875 300.038,246.933 299.973,247.249 298.626 C 247.707 296.672,249.236 294.621,250.921 293.700 C 252.096 293.057,254.361 292.991,278.900 292.887 C 295.734 292.815,305.600 292.630,305.600 292.387 C 305.600 292.174,305.555 292.041,305.500 292.092 C 305.445 292.142,293.430 292.277,278.800 292.392 M262.400 324.000 C 262.400 332.800,262.538 340.000,262.707 340.000 C 263.096 340.000,294.400 308.677,294.400 308.288 C 294.400 308.130,287.200 308.000,278.400 308.000 L 262.400 308.000 262.400 324.000 M293.055 308.706 C 293.339 308.890,287.751 314.773,278.155 324.392 L 262.800 339.784 262.800 324.092 L 262.800 308.400 277.700 308.406 C 285.895 308.409,292.805 308.544,293.055 308.706 M125.062 313.500 C 124.960 313.665,145.494 313.753,170.694 313.695 L 216.513 313.590 218.211 314.585 C 222.775 317.260,223.082 323.322,218.846 327.144 C 218.271 327.663,218.070 327.951,218.400 327.784 C 223.392 325.260,223.527 317.793,218.639 314.500 L 216.710 313.200 170.978 313.200 C 145.826 313.200,125.164 313.335,125.062 313.500 M122.603 315.100 C 121.162 316.532,120.229 317.962,120.535 318.268 C 120.668 318.402,120.945 318.070,121.150 317.531 C 121.355 316.992,122.177 315.977,122.975 315.275 C 123.774 314.574,124.266 314.000,124.068 314.000 C 123.871 314.000,123.211 314.495,122.603 315.100 M120.124 321.000 C 120.126 322.320,120.201 322.812,120.290 322.093 C 120.379 321.374,120.377 320.294,120.286 319.693 C 120.195 319.092,120.122 319.680,120.124 321.000 M289.298 335.302 C 280.664 343.938,273.600 351.138,273.600 351.302 C 273.600 351.466,280.800 351.600,289.600 351.600 L 305.600 351.600 305.600 335.600 C 305.600 326.800,305.464 319.600,305.298 319.600 C 305.132 319.600,297.932 326.666,289.298 335.302 M305.200 335.800 L 305.200 351.200 289.702 351.200 L 274.204 351.200 289.600 335.800 C 298.068 327.330,305.042 320.400,305.098 320.400 C 305.154 320.400,305.200 327.330,305.200 335.800 M120.400 323.985 C 120.400 325.564,125.451 329.213,126.903 328.683 C 127.177 328.584,126.737 328.372,125.926 328.212 C 124.344 327.899,121.200 325.492,121.200 324.592 C 121.200 324.293,121.020 323.936,120.800 323.800 C 120.580 323.664,120.400 323.747,120.400 323.985 M215.800 328.400 L 215.000 328.744 215.800 328.766 C 216.240 328.778,216.870 328.613,217.200 328.400 C 217.995 327.886,216.996 327.886,215.800 328.400 M196.385 384.900 C 194.195 386.004,191.980 389.087,192.041 390.945 L 192.082 392.200 192.374 391.000 C 194.324 382.991,204.571 382.300,207.218 390.000 C 207.872 391.904,207.976 392.031,207.987 390.945 C 208.037 386.117,201.120 382.512,196.385 384.900 " stroke="none" fill="#aa5151" fill-rule="evenodd"></path><path id="path4" d="M94.598 206.400 C 94.598 285.930,94.644 318.465,94.700 278.700 C 94.756 238.935,94.756 173.865,94.700 134.100 C 94.644 94.335,94.598 126.870,94.598 206.400 M305.299 176.897 L 305.200 291.994 279.500 292.100 L 253.800 292.206 279.513 292.303 C 299.786 292.379,305.265 292.294,305.415 291.900 C 305.519 291.625,305.558 239.740,305.502 176.600 L 305.399 61.800 305.299 176.897 M243.775 80.100 L 242.600 81.400 243.900 80.225 C 244.615 79.579,245.200 78.994,245.200 78.925 C 245.200 78.616,244.870 78.888,243.775 80.100 M268.800 78.925 C 268.800 78.994,269.385 79.579,270.100 80.225 L 271.400 81.400 270.225 80.100 C 269.130 78.888,268.800 78.616,268.800 78.925 M169.210 105.100 C 169.220 105.418,169.464 106.390,170.742 111.200 C 171.180 112.850,171.988 115.910,172.536 118.000 C 173.084 120.090,173.897 123.150,174.342 124.800 C 174.787 126.450,175.797 130.230,176.587 133.200 C 177.377 136.170,178.195 139.005,178.403 139.500 L 178.783 140.400 202.549 140.400 C 224.806 140.400,226.333 140.356,226.603 139.700 C 226.905 138.968,227.008 138.608,228.400 133.400 C 228.870 131.640,229.410 129.660,229.600 129.000 C 229.790 128.340,230.317 126.405,230.772 124.700 C 232.355 118.773,233.204 115.583,233.969 112.700 C 234.392 111.105,235.006 108.813,235.335 107.606 C 235.663 106.400,235.846 105.275,235.742 105.106 C 235.497 104.710,169.197 104.704,169.210 105.100 M149.331 209.100 C 161.393 209.159,181.013 209.159,192.931 209.100 C 204.849 209.041,194.980 208.993,171.000 208.993 C 147.020 208.993,137.269 209.041,149.331 209.100 M253.086 233.999 C 254.233 235.189,255.231 236.080,255.303 235.981 C 255.376 235.881,254.437 234.908,253.218 233.818 L 251.000 231.836 253.086 233.999 M242.200 246.000 C 243.283 247.100,244.260 248.000,244.370 248.000 C 244.480 248.000,243.683 247.100,242.600 246.000 C 241.517 244.900,240.540 244.000,240.430 244.000 C 240.320 244.000,241.117 244.900,242.200 246.000 M148.931 273.100 C 161.213 273.159,181.193 273.159,193.331 273.100 C 205.469 273.041,195.420 272.993,171.000 272.993 C 146.580 272.993,136.649 273.041,148.931 273.100 M246.589 324.800 C 246.589 338.990,246.639 344.795,246.700 337.700 C 246.761 330.605,246.761 318.995,246.700 311.900 C 246.639 304.805,246.589 310.610,246.589 324.800 M149.300 313.100 C 161.345 313.159,181.055 313.159,193.100 313.100 C 205.145 313.041,195.290 312.993,171.200 312.993 C 147.110 312.993,137.255 313.041,149.300 313.100 M120.800 325.325 C 120.800 325.394,121.385 325.979,122.100 326.625 L 123.400 327.800 122.225 326.500 C 121.130 325.288,120.800 325.016,120.800 325.325 M148.531 329.100 C 161.033 329.159,181.373 329.159,193.731 329.100 C 206.089 329.041,195.860 328.993,171.000 328.993 C 146.140 328.993,136.029 329.041,148.531 329.100 M132.268 351.500 C 152.986 351.557,187.006 351.557,207.868 351.500 C 228.731 351.443,211.780 351.396,170.200 351.396 C 128.620 351.396,111.551 351.443,132.268 351.500 " stroke="none" fill="#80d2b9" fill-rule="evenodd"></path></g></svg>