<svg id="svg" version="1.1" xmlns="http://www.w3.org/2000/svg" xmlns:xlink="http://www.w3.org/1999/xlink" width="400" height="369.3654266958425" viewBox="0, 0, 400,369.3654266958425"><g id="svgg"><path id="path0" d="M130.708 0.301 C 111.650 2.555,101.951 24.188,112.840 40.151 C 123.625 55.962,148.351 53.963,156.554 36.616 C 164.128 20.601,153.942 2.250,136.397 0.297 C 133.518 -0.023,133.449 -0.023,130.708 0.301 M264.412 0.291 C 244.040 2.529,234.844 27.667,248.820 42.911 C 260.829 56.010,282.778 52.599,290.432 36.444 C 298.958 18.450,284.315 -1.895,264.412 0.291 M62.874 18.114 C 26.968 21.410,18.776 71.603,51.763 86.192 L 53.468 86.945 56.785 83.606 C 67.667 72.653,81.496 66.379,96.764 65.466 C 100.651 65.234,100.273 65.594,101.322 61.123 C 102.127 57.693,102.186 49.759,101.432 46.437 C 97.285 28.182,81.279 16.424,62.874 18.114 M196.207 18.112 C 168.778 20.652,154.542 52.945,171.116 75.029 C 188.500 98.192,225.127 91.920,233.786 64.298 C 241.408 39.982,221.692 15.751,196.207 18.112 M330.416 18.099 C 307.892 19.981,292.806 42.703,299.672 64.406 C 299.956 65.303,300.048 65.354,301.378 65.354 C 316.358 65.354,333.830 73.196,344.370 84.650 L 346.557 87.027 349.281 85.700 C 369.008 76.091,375.457 51.239,362.928 33.114 C 355.781 22.776,343.321 17.021,330.416 18.099 M115.828 54.657 L 112.181 55.288 111.951 57.039 C 111.694 58.994,110.682 64.565,110.404 65.559 C 110.254 66.093,110.365 66.231,111.056 66.372 C 126.213 69.461,139.570 77.695,148.334 89.351 C 149.269 90.594,150.085 91.612,150.147 91.612 C 150.210 91.612,151.619 91.032,153.278 90.323 C 156.614 88.898,161.443 87.309,164.916 86.493 C 167.624 85.857,167.590 86.061,165.410 83.568 C 159.201 76.466,155.444 67.806,154.339 58.049 C 153.959 54.702,154.261 54.987,150.510 54.433 C 146.411 53.828,145.935 53.848,144.065 54.705 C 138.025 57.470,129.483 57.466,123.218 54.695 C 121.280 53.838,120.588 53.834,115.828 54.657 M252.662 54.129 C 252.422 54.176,250.829 54.439,249.123 54.713 C 245.182 55.346,245.402 55.149,245.054 58.374 C 244.060 67.587,240.123 76.565,234.007 83.566 C 233.036 84.677,232.306 85.649,232.385 85.728 C 232.463 85.806,233.940 86.236,235.667 86.684 C 239.697 87.728,244.146 89.280,247.333 90.752 C 248.718 91.391,249.931 91.814,250.029 91.690 C 250.127 91.567,250.990 90.416,251.946 89.132 C 259.872 78.486,273.590 69.747,286.962 66.825 C 290.082 66.143,289.871 66.504,289.133 63.120 C 288.789 61.540,288.433 59.110,288.341 57.718 C 288.146 54.780,288.638 55.117,283.477 54.379 L 279.942 53.873 277.954 54.670 C 271.020 57.450,264.072 57.510,257.421 54.847 C 255.490 54.074,254.051 53.856,252.662 54.129 M94.238 75.597 C 57.824 79.718,37.502 120.456,56.097 152.052 C 74.737 183.724,120.173 185.696,141.576 155.763 C 152.130 141.002,153.844 120.497,145.900 104.027 C 136.561 84.665,115.674 73.171,94.238 75.597 M294.384 75.597 C 259.232 79.575,238.710 117.488,254.580 149.131 C 273.258 186.374,326.906 186.338,345.596 149.070 C 363.646 113.080,334.365 71.072,294.384 75.597 M45.660 93.855 C 20.398 97.134,6.515 106.498,2.050 123.269 C 0.445 129.301,0.232 132.062,0.079 148.799 L -0.064 164.411 2.521 165.962 C 5.433 167.709,9.949 169.936,13.337 171.296 C 16.191 172.441,21.289 174.179,21.793 174.179 C 22.099 174.179,22.180 171.850,22.208 162.290 L 22.242 150.401 24.334 162.901 C 25.851 171.961,26.545 175.466,26.857 175.641 C 27.543 176.025,36.531 177.880,40.892 178.537 L 44.877 179.138 48.530 178.137 C 52.695 176.995,59.512 175.473,61.780 175.179 C 63.593 174.943,63.617 174.865,62.207 173.797 C 39.219 156.407,32.449 122.019,46.996 96.537 C 48.822 93.339,48.872 93.439,45.660 93.855 M177.391 94.120 C 169.106 95.325,155.213 99.206,155.216 100.314 C 155.216 100.422,155.816 102.020,156.548 103.866 C 161.149 115.454,162.052 129.161,159.003 141.086 C 158.685 142.329,158.425 143.473,158.425 143.627 C 158.425 143.782,159.245 143.191,160.248 142.316 C 182.983 122.466,217.514 122.417,239.791 142.201 C 241.817 144.001,241.858 143.957,241.072 140.846 C 237.879 128.208,238.878 115.417,244.058 102.606 C 244.997 100.285,245.083 100.423,241.865 99.098 C 233.696 95.734,218.999 92.874,215.960 94.057 C 203.847 98.773,193.980 98.871,184.316 94.372 C 182.574 93.561,181.499 93.522,177.391 94.120 M351.568 93.806 C 351.568 93.889,351.884 94.458,352.270 95.070 C 367.894 119.819,361.791 154.063,338.293 173.504 C 337.491 174.168,336.900 174.762,336.980 174.824 C 337.061 174.887,339.555 175.420,342.524 176.010 C 345.492 176.600,349.556 177.550,351.554 178.122 C 355.067 179.127,355.259 179.151,357.389 178.835 C 361.191 178.270,367.346 177.106,370.550 176.345 L 373.632 175.614 375.841 162.424 L 378.050 149.234 378.084 161.707 C 378.104 169.127,378.227 174.179,378.388 174.179 C 380.167 174.179,391.940 169.220,396.684 166.471 L 399.854 164.635 399.942 150.953 C 400.055 133.202,399.599 127.888,397.379 121.095 C 392.513 106.203,379.450 97.526,356.966 94.252 C 352.768 93.641,351.568 93.542,351.568 93.806 M195.303 137.444 C 164.253 140.217,143.092 170.336,150.738 200.873 C 157.842 229.242,187.997 245.649,216.127 236.451 C 247.964 226.041,261.000 187.789,242.289 159.686 C 232.077 144.348,213.969 135.776,195.303 137.444 M70.605 183.834 C 32.102 188.885,11.112 203.952,5.142 230.825 C 3.340 238.933,2.930 245.694,2.923 267.433 L 2.918 282.640 5.033 284.092 C 11.888 288.794,21.388 293.369,31.549 296.859 C 34.125 297.744,36.286 298.468,36.351 298.468 C 36.416 298.468,36.484 290.098,36.502 279.869 C 36.521 269.032,36.636 261.817,36.777 262.582 C 36.911 263.304,38.363 272.080,40.005 282.083 C 42.748 298.795,43.039 300.291,43.596 300.502 C 49.295 302.668,73.382 306.307,85.483 306.831 L 89.812 307.018 89.963 305.734 C 90.046 305.027,90.327 302.564,90.586 300.260 C 94.395 266.427,114.626 244.860,150.985 235.872 C 153.392 235.277,155.409 234.748,155.468 234.697 C 155.526 234.645,154.498 233.437,153.184 232.011 C 142.021 219.907,135.976 204.857,135.847 188.848 L 135.813 184.699 135.084 184.547 C 134.683 184.463,132.229 184.136,129.631 183.819 L 124.907 183.242 122.045 184.510 C 107.805 190.818,91.521 190.761,77.640 184.354 C 76.293 183.732,75.112 183.236,75.014 183.252 C 74.916 183.267,72.932 183.529,70.605 183.834 M270.314 183.818 C 268.067 184.115,265.821 184.433,265.323 184.525 L 264.417 184.693 264.245 189.721 C 263.684 206.177,257.567 220.924,246.582 232.305 C 245.138 233.801,244.544 234.603,244.814 234.690 C 245.039 234.763,247.192 235.305,249.599 235.894 C 286.410 244.913,305.241 266.758,307.752 303.354 C 307.887 305.320,308.071 307.001,308.161 307.091 C 308.397 307.328,318.386 306.699,324.990 306.032 C 334.804 305.040,343.748 303.551,353.082 301.355 L 357.075 300.415 357.424 298.348 C 357.616 297.210,359.053 288.600,360.617 279.212 L 363.462 262.144 363.496 280.306 C 363.515 290.295,363.563 298.466,363.603 298.464 C 367.669 298.220,386.074 289.938,393.800 284.877 L 397.082 282.726 397.081 265.287 C 397.080 247.986,396.881 242.514,396.036 236.616 C 391.614 205.735,370.261 188.909,329.018 183.806 L 324.704 183.273 322.298 184.400 C 308.651 190.795,291.475 190.785,277.796 184.375 C 276.444 183.742,275.127 183.236,274.868 183.252 C 274.610 183.267,272.560 183.522,270.314 183.818 M221.644 246.616 C 207.803 252.770,191.629 252.631,177.535 246.237 C 175.190 245.174,174.428 245.174,167.177 246.248 C 128.587 251.959,108.484 268.551,104.146 298.268 C 103.226 304.575,102.993 310.575,102.992 327.994 L 102.991 344.536 103.939 345.258 C 107.852 348.236,118.358 353.795,124.897 356.346 C 128.502 357.753,135.861 360.321,136.287 360.321 C 136.430 360.321,136.557 352.282,136.576 342.013 L 136.610 323.705 139.824 343.018 L 143.037 362.331 146.136 363.068 C 179.100 370.919,216.860 371.296,249.599 364.099 C 257.222 362.424,256.985 362.508,257.192 361.404 C 257.289 360.889,258.723 352.327,260.380 342.378 L 263.392 324.289 263.425 342.305 C 263.452 357.575,263.520 360.321,263.868 360.321 C 266.743 360.321,283.502 353.143,290.956 348.719 L 294.675 346.511 294.672 326.356 C 294.668 299.981,294.222 294.802,291.112 285.066 C 283.694 261.842,262.172 248.737,225.821 245.309 C 225.086 245.240,223.913 245.607,221.644 246.616 " stroke="none" fill="#044c8c" fill-rule="evenodd"></path><path id="path1" d="" stroke="none" fill="#084c8c" fill-rule="evenodd"></path><path id="path2" d="" stroke="none" fill="#084c8c" fill-rule="evenodd"></path><path id="path3" d="" stroke="none" fill="#084c8c" fill-rule="evenodd"></path><path id="path4" d="" stroke="none" fill="#084c8c" fill-rule="evenodd"></path></g></svg>